<svg xmlns="http://www.w3.org/2000/svg" viewBox="0 0 240 120" fill="none">
  <defs>
    <linearGradient id="cloudGrad" x1="0%" y1="0%" x2="0%" y2="100%">
      <stop offset="0%" stop-color="#ffffff"/>
      <stop offset="100%" stop-color="#eef1fb"/>
    </linearGradient>
  </defs>
  <ellipse cx="70" cy="88" rx="66" ry="24" fill="url(#cloudGrad)" opacity="0.75"/>
  <ellipse cx="168" cy="92" rx="60" ry="22" fill="url(#cloudGrad)" opacity="0.7"/>
  <path d="M48 92C28 92 12 79 12 61C12 43 27 30 45 30C48 30 51 30.5 54 31.5C62 15 79 4 99 4C123 4 143 20 147 41C150 40 153.5 39.5 157 39.5C177 39.5 193 54.5 193 73C193 74.4 192.9 75.8 192.7 77.2C209 79.5 221 93.2 221 109.5C221 109.9 221 110.2 221 110.5H48V92Z" fill="url(#cloudGrad)"/>
</svg>
